<svg width="1280" height="420" viewBox="0 0 1280 420" fill="none" xmlns="http://www.w3.org/2000/svg">
  <defs>
    <linearGradient id="bg" x1="0" y1="0" x2="1280" y2="420" gradientUnits="userSpaceOnUse">
      <stop stop-color="#1e1f1c"/>
      <stop offset="0.45" stop-color="#272822"/>
      <stop offset="1" stop-color="#111111"/>
    </linearGradient>

    <linearGradient id="accent" x1="120" y1="70" x2="1160" y2="350" gradientUnits="userSpaceOnUse">
      <stop stop-color="#f92672"/>
      <stop offset="0.35" stop-color="#a6e22e"/>
      <stop offset="0.7" stop-color="#66d9ef"/>
      <stop offset="1" stop-color="#ae81ff"/>
    </linearGradient>

    <filter id="glow" x="-20%" y="-20%" width="140%" height="140%">
      <feGaussianBlur stdDeviation="18" result="blur"/>
      <feMerge>
        <feMergeNode in="blur"/>
        <feMergeNode in="SourceGraphic"/>
      </feMerge>
    </filter>
  </defs>

  <rect width="1280" height="420" fill="url(#bg)"/>

  <circle cx="1030" cy="80" r="220" fill="#66d9ef" opacity="0.07"/>
  <circle cx="170" cy="360" r="260" fill="#f92672" opacity="0.08"/>

  <path d="M120 300 C280 120, 440 360, 620 180 S940 100, 1160 260" stroke="url(#accent)" stroke-width="6" opacity="0.75" filter="url(#glow)"/>

  <g opacity="0.14">
    <path d="M0 80H1280" stroke="#f8f8f2"/>
    <path d="M0 160H1280" stroke="#f8f8f2"/>
    <path d="M0 240H1280" stroke="#f8f8f2"/>
    <path d="M0 320H1280" stroke="#f8f8f2"/>
    <path d="M160 0V420" stroke="#f8f8f2"/>
    <path d="M320 0V420" stroke="#f8f8f2"/>
    <path d="M480 0V420" stroke="#f8f8f2"/>
    <path d="M640 0V420" stroke="#f8f8f2"/>
    <path d="M800 0V420" stroke="#f8f8f2"/>
    <path d="M960 0V420" stroke="#f8f8f2"/>
    <path d="M1120 0V420" stroke="#f8f8f2"/>
  </g>

  <text x="80" y="150" font-family="JetBrains Mono, Menlo, monospace" font-size="54" font-weight="700" fill="#f8f8f2">
    Bosco López
  </text>

  <text x="82" y="205" font-family="JetBrains Mono, Menlo, monospace" font-size="28" fill="#a6e22e">
    Infrastructure · DevOps · SRE · Platform Engineering
  </text>

  <text x="82" y="265" font-family="JetBrains Mono, Menlo, monospace" font-size="22" fill="#66d9ef">
    Kubernetes · Linux · Networking · Databases · Automation · Observability
  </text>

  <text x="82" y="330" font-family="JetBrains Mono, Menlo, monospace" font-size="18" fill="#75715e">
    Building reliable systems, secure operations and clean technical documentation.
  </text>

  <rect x="80" y="355" width="220" height="4" rx="2" fill="#f92672"/>
  <rect x="320" y="355" width="220" height="4" rx="2" fill="#a6e22e"/>
  <rect x="560" y="355" width="220" height="4" rx="2" fill="#66d9ef"/>
  <rect x="800" y="355" width="220" height="4" rx="2" fill="#ae81ff"/>
</svg>
